<svg viewBox="0 0 100 100" xmlns="http://www.w3.org/2000/svg">
  <!-- Background circle -->
  <circle cx="50" cy="50" r="48" fill="#7e22ce" />
  
  <!-- Centered monogram group -->
  <g transform="translate(0, 2)">
    <!-- Letter J - repositioned -->
    <path d="M40 30v25c0 5 -1 8 -3 10 -2 2 -5 3 -9 3 -2 0 -4 -0.5 -6 -1.5 l2 -6 c1 0.5 2 0.7 3 0.7 3 0 4.5 -2.2 4.5 -6.5 v-24.5 h8.5z" fill="white" />
    
    <!-- Letter M - repositioned -->
    <path d="M47 68v-38 h7 l8 24 8 -24 h7 v38 h-8 v-27 l-7 22 h-0.5 l-7 -22 v27 h-7.5z" fill="white" />
  </g>
</svg>